<svg width="40" height="42" viewBox="0 0 40 42" fill="none" xmlns="http://www.w3.org/2000/svg">
<path fill-rule="evenodd" clip-rule="evenodd" d="M34.463 10.9749L34.2382 10.7964C33.7651 10.419 33.1667 10.2475 32.5694 10.3127C31.9663 10.3785 31.4257 10.6732 31.0461 11.1422L28.7683 13.9586C27.9852 14.9271 28.1413 16.3489 29.1195 17.1284L29.343 17.3058C29.7499 17.6303 30.2455 17.8029 30.7599 17.8029C30.8439 17.8029 30.9279 17.7981 31.0118 17.7892C31.615 17.7234 32.1554 17.4287 32.5351 16.9599L34.8131 14.1447V14.1442C35.596 13.1743 35.44 11.7525 34.463 10.9749ZM33.3961 13.0159L31.1183 15.8314C31.0165 15.9571 30.8841 15.9889 30.8143 15.9967C30.7421 16.0042 30.6085 16.0024 30.4785 15.8984L30.2549 15.7212C30.0597 15.5653 30.0277 15.2812 30.1851 15.0873L32.4631 12.271C32.5647 12.145 32.6973 12.1132 32.767 12.1055C32.7812 12.1037 32.7976 12.1029 32.8167 12.1029C32.8911 12.1029 32.9988 12.1208 33.1017 12.2031L33.3264 12.3823C33.5216 12.5375 33.5522 12.8214 33.3961 13.0159ZM39.5616 13.3163C40.2499 12.4648 40.1127 11.2151 39.2553 10.531L26.5896 0.437636C26.1733 0.106436 25.6459 -0.0476439 25.1232 0.0129262C24.5933 0.0705262 24.1167 0.329501 23.7831 0.742106L12.4986 14.6956H0V41.9624H37.0342V34.6182H39.305V27.1047H37.0342V16.4415L39.5616 13.3163ZM30.2928 5.70147L18.9227 19.7592H16.1L28.5766 4.3341L30.2928 5.70147ZM25.2 1.87156C25.2627 1.79223 25.3751 1.78219 25.4519 1.84389L27.1596 3.20487L13.7695 19.7592H10.7319L25.2 1.87156ZM1.81658 16.4986H11.0401L8.40316 19.7592H1.81658V16.4986ZM35.2176 40.1589H1.81658V21.5624H32.8923L35.2176 18.6876V27.1047H29.7037V34.6182H35.2176V40.1589ZM37.4884 28.9082V32.815H31.5204V28.9082H37.4884ZM32.0219 19.7592H21.253L31.7098 6.83092L38.1175 11.9377C38.1838 11.9898 38.198 12.1219 38.1447 12.1869L32.0219 19.7592Z" fill="black"/>
</svg>
