<svg width="40" height="40" viewBox="0 0 40 40" fill="none" xmlns="http://www.w3.org/2000/svg">
<path fill-rule="evenodd" clip-rule="evenodd" d="M-0.000732422 20.0005C-0.000732422 8.97209 8.97145 0 19.9998 0C31.028 0 40.0002 8.97209 40.0002 20.0005C40.0002 31.0279 31.028 40 19.9998 40C8.97145 40 -0.000732422 31.0279 -0.000732422 20.0005ZM20.9398 33.9711V38.0725C30.1801 37.5951 37.5964 30.1797 38.0742 20.9407H33.9714V19.0605H38.0742C37.5964 9.82149 30.1801 2.40491 20.9398 1.92731V6.02863H19.0597V1.92731C9.76573 2.40771 2.31656 9.90782 1.91735 19.2217H6.02905V20.7776H1.91735C2.31548 30.0924 9.76504 37.5921 19.0597 38.0725V33.9711H20.9398ZM15.8827 15.4039L19.9557 18.7483L28.0087 11.1316L29.301 12.4978L20.0438 21.2526L14.6906 16.855L15.8827 15.4039Z" fill="black"/>
</svg>
