<svg width="16" height="11" viewBox="0 0 16 11" fill="none" xmlns="http://www.w3.org/2000/svg">
<path fill-rule="evenodd" clip-rule="evenodd" d="M15.3767 0.944099C14.7993 0.273694 13.733 0 11.6964 0H4.30406C2.22114 0 1.13664 0.291108 0.561281 1.00523C0.000366211 1.70155 0.000366211 2.72747 0.000366211 4.14739V6.85319C0.000366211 9.60368 0.665964 11 4.30406 11H11.6964C13.4626 11 14.4411 10.7586 15.0742 10.1669C15.7234 9.55977 16.0003 8.56906 16.0003 6.85319V4.14739C16.0003 2.6499 15.957 1.61799 15.3767 0.944099ZM10.2726 5.87369L6.91575 7.58762C6.84058 7.62593 6.75839 7.64507 6.6765 7.64507C6.58382 7.64507 6.49105 7.62051 6.40916 7.57196C6.25463 7.48066 6.16035 7.31721 6.16035 7.14082V3.72399C6.16035 3.54798 6.25445 3.38453 6.40865 3.29323C6.56288 3.20155 6.75441 3.19536 6.91442 3.27659L10.2713 4.9795C10.4419 5.06597 10.5493 5.2381 10.5495 5.42631C10.5498 5.61451 10.4429 5.78666 10.2726 5.87369Z" fill="#484848"/>
</svg>
