<svg width="45" height="50" viewBox="0 0 45 50" fill="none" xmlns="http://www.w3.org/2000/svg">
<path fill-rule="evenodd" clip-rule="evenodd" d="M29.7326 10.9055L29.7327 10.9051L23.3158 8.35729V7.15059C24.1703 6.97128 24.9295 6.4759 25.4544 5.74236C26.092 4.85041 26.2923 3.71317 26.003 2.62144C25.6912 1.44305 24.789 0.498919 23.6488 0.158214C22.2332 -0.266387 20.786 0.178416 19.8673 1.31497L20.9782 2.25062C21.5243 1.57705 22.388 1.31246 23.2433 1.56858C23.896 1.76419 24.4338 2.32786 24.6133 3.00442C24.7899 3.67383 24.6764 4.33776 24.2921 4.87498C23.9137 5.40395 23.3311 5.72328 22.6914 5.7534C22.2344 5.77589 21.8769 6.15406 21.8769 6.61358V8.27659L15.2562 10.9051L15.2564 10.9055L0.000366211 16.5598L3.82054 24.849L8.45379 23.0437V50H36.5352V23.0437L41.1686 24.849L44.9887 16.5598L29.7326 10.9055ZM28.462 12.2846C27.5308 14.8821 25.2324 16.3922 22.4946 16.3922C19.7565 16.3922 17.4586 14.8821 16.5272 12.2846L22.4946 10.0338L28.462 12.2846ZM10.2581 48.1529V45.5864H34.7035V48.1529H10.2581ZM40.1372 22.5214L34.7035 20.3212V43.7389H10.2581V20.2704L4.95867 22.5724L2.50515 17.5736L14.8653 12.9115C16.0045 16.0787 19.15 18.1249 22.4946 18.1249C25.8387 18.1249 28.9593 16.069 30.0981 12.9021L42.548 17.598L40.1372 22.5214Z" fill="black"/>
</svg>
