<svg width="16" height="9" viewBox="0 0 16 9" fill="none" xmlns="http://www.w3.org/2000/svg">
<path fill-rule="evenodd" clip-rule="evenodd" d="M15.443 2.07782C15.9451 1.32284 16.111 0.828729 15.9274 0.605144C15.8273 0.498461 15.7443 0.443326 15.6973 0.431338C15.6442 0.419081 15.474 0.414745 15.1897 0.414745H12.7893C12.5297 0.414745 12.3713 0.431338 12.306 0.471403C12.24 0.505854 12.1576 0.639595 12.0518 0.868277L11.9927 0.977012C11.9927 0.977012 11.9162 1.14011 11.7626 1.45556C11.6094 1.76694 11.5148 1.96143 11.4911 2.03748C11.4676 2.11686 11.3735 2.29272 11.2204 2.56734C11.0661 2.8486 10.949 3.03313 10.8713 3.13701C10.7958 3.23425 10.6834 3.39045 10.5415 3.59157C10.4001 3.7932 10.2647 3.93612 10.1346 4.02393C10.0046 4.11504 9.86971 4.20872 9.72776 4.31157C9.59728 4.25797 9.49772 4.13239 9.42155 3.93179C9.33814 3.73143 9.30217 3.48259 9.30217 3.1952C9.30217 2.90169 9.30808 2.62604 9.32089 2.35958C9.33174 2.09517 9.35638 1.81952 9.37942 1.53085C9.40246 1.23836 9.41465 1.05843 9.42155 0.977012C9.42155 0.373145 9.03195 0.0742704 8.25247 0.0742704C8.22894 0.0742704 8.04634 0.0627865 7.71612 0.0347094C7.37874 0.0102065 7.09028 0 6.86061 0C5.92922 0 5.38644 0.201121 5.23329 0.605144C5.90457 0.804472 6.22999 1.29452 6.20016 2.07782C6.20016 3.31414 6.17652 3.93179 6.12402 3.93179C5.99341 4.43178 5.72197 4.49635 5.3093 4.12193C4.6894 3.33966 4.05927 2.24447 3.41053 0.828729C3.25639 0.529596 3.04962 0.389726 2.79062 0.414745C2.68996 0.414745 2.36551 0.408616 1.82275 0.397133C1.28035 0.385649 0.8677 0.389726 0.584532 0.414745C0.300765 0.437713 0.105972 0.498461 0 0.605144C0.0299427 0.955064 0.158939 1.3887 0.389604 1.88741C1.00854 3.17121 1.95275 4.69696 3.22052 6.46467C3.68086 6.97156 4.04054 7.33398 4.28255 7.55961C4.53095 7.78957 4.86066 8.04147 5.27283 8.31866C5.68722 8.59405 6.14706 8.7801 6.64868 8.86485C7.1498 8.95238 7.73964 8.98505 8.41191 8.96412C8.61868 8.93375 8.76591 8.91717 8.85464 8.90567C8.9484 8.88781 9.05437 8.83651 9.18449 8.7334C9.31399 8.62978 9.39163 8.47842 9.42155 8.27858L9.49772 7.29953C9.57472 7.01749 9.75141 6.89218 10.0222 6.91924C10.2936 6.94195 10.4767 7.04685 10.5828 7.21913C10.7599 7.52336 11.1138 7.90467 11.6272 8.35311C12.1464 8.80767 12.5821 9.02589 12.9483 8.99756L15.5028 8.88245C15.732 8.88245 15.8862 8.7801 15.9515 8.56699C16.0104 8.35311 15.9574 8.1063 15.7743 7.823C15.3852 7.27119 14.7004 6.55272 13.7207 5.66963C13.2556 5.24442 13.3435 4.67373 13.9933 3.96522C14.4526 3.46626 14.9419 2.83176 15.443 2.07782Z" fill="#484848"/>
</svg>
