<svg width="64" height="29" viewBox="0 0 64 29" fill="none" xmlns="http://www.w3.org/2000/svg">
<path fill-rule="evenodd" clip-rule="evenodd" d="M53.5182 9.79664L62.9721 12.3977C63.5776 12.5641 64.0005 13.1212 64.0005 13.7518V23.1772C64.0005 23.7697 63.6237 24.2898 63.0622 24.4719L57.6316 26.23C56.6852 27.8756 54.9338 28.9984 52.9092 28.9984C51.0665 28.9984 49.4416 28.0726 48.4493 26.6668V26.7409H27.9492V26.5249C26.9689 28.0123 25.292 28.9984 23.3864 28.9984C21.49 28.9984 19.8183 28.0232 18.8358 26.5477L13.3614 25.0738C12.807 24.9227 12.4206 24.4169 12.4206 23.8422V18.9208H14.2404V23.4175L18.007 24.4315C17.9552 24.1277 17.9135 23.8205 17.9135 23.5021C17.9135 20.4722 20.3687 18.0071 23.3864 18.0071C26.4041 18.0071 28.8591 20.4722 28.8591 23.5021C28.8591 23.9926 28.7742 24.4603 28.6534 24.9131H47.6421C47.5213 24.4603 47.4363 23.9926 47.4363 23.5021C47.4363 20.4722 49.8913 18.0071 52.9092 18.0071C55.9269 18.0071 58.382 20.4722 58.382 23.5021C58.382 23.6399 58.364 23.7728 58.3459 23.9059L58.3459 23.906L58.3459 23.9061C58.3378 23.9657 58.3297 24.0253 58.3232 24.0854L62.1806 22.8371V14.0755L52.7847 11.4909H38.5216V1.82774H16.2381V0H46.9161C47.6366 0 48.3013 0.392704 48.6507 1.02566L53.5182 9.79664ZM46.9161 1.82774H40.3414V9.66314H51.3601L47.0608 1.91462C47.0313 1.8609 46.9755 1.82774 46.9161 1.82774ZM19.7335 23.5021C19.7335 25.5248 21.3721 27.1706 23.3864 27.1706C25.4005 27.1706 27.0392 25.5248 27.0392 23.5021C27.0392 21.4805 25.4005 19.8347 23.3864 19.8347C21.3721 19.8347 19.7335 21.4805 19.7335 23.5021ZM49.2565 23.5021C49.2565 25.5248 50.8948 27.1706 52.9092 27.1706C54.9235 27.1706 56.5619 25.5248 56.5619 23.5021C56.5619 21.4805 54.9235 19.8347 52.9092 19.8347C50.8948 19.8347 49.2565 21.4805 49.2565 23.5021ZM0 4.58698H21.9396V6.41475H0V4.58698ZM4.85309 11.4909H28.8154V9.66314H4.85309V11.4909ZM0 14.7407H16.2381V16.5682H0V14.7407Z" fill="black"/>
</svg>
