<svg width="17" height="7" viewBox="0 0 17 7" fill="none" xmlns="http://www.w3.org/2000/svg">
<path fill-rule="evenodd" clip-rule="evenodd" d="M0.0214898 0.549115C0.0213444 0.548894 0.0212088 0.548687 0.439495 0.274759C0.857782 0.000831068 0.857666 0.000653863 0.857559 0.00049156L0.857394 0.000240117L0.857237 1.3411e-06C0.857262 3.99649e-05 0.857386 0.000227213 0.857608 0.000561208L0.861109 0.00577077C0.864668 0.0110312 0.870675 0.0198231 0.879132 0.0319118C0.89605 0.0560938 0.922753 0.0934374 0.959263 0.142069C1.03231 0.239375 1.14442 0.381602 1.29575 0.553842C1.59873 0.898706 2.05679 1.36147 2.67093 1.82466C3.89734 2.74962 5.7404 3.67294 8.22388 3.67294C10.7079 3.67294 12.5512 2.7496 13.7777 1.82464C14.3919 1.36145 14.85 0.898694 15.153 0.553833C15.3043 0.381595 15.4164 0.239369 15.4895 0.142065C15.526 0.0934335 15.5527 0.0560907 15.5696 0.0319095C15.5781 0.0198211 15.5841 0.0110296 15.5876 0.00576961L15.5911 0.000560641L15.5912 0.00049153C15.5911 0.000653863 15.591 0.000831097 16.0093 0.274759C16.4275 0.548687 16.4274 0.548894 16.4273 0.549115L16.4269 0.549634L16.4261 0.550938L16.4236 0.554608L16.4159 0.566113C16.4095 0.575605 16.4005 0.588702 16.389 0.605165C16.366 0.638086 16.3327 0.684493 16.2892 0.742453C16.2022 0.858331 16.074 1.02065 15.9042 1.21387C15.5651 1.59992 15.0579 2.1117 14.3798 2.62306C13.0218 3.6472 10.9724 4.67294 8.22388 4.67294C5.47582 4.67294 3.42669 3.64718 2.06879 2.62304C1.39078 2.11169 0.883657 1.5999 0.544495 1.21386C0.374745 1.02064 0.246541 0.858325 0.159548 0.742449C0.116036 0.68449 0.0827838 0.638083 0.0597522 0.605163C0.0482349 0.5887 0.0392682 0.575603 0.0328472 0.566112L0.0251225 0.554607L0.0226896 0.550938L0.0218302 0.549634L0.0214898 0.549115ZM0.857236 0L0.857237 1.3411e-06L0.857236 0Z" fill="#211300"/>
<path fill-rule="evenodd" clip-rule="evenodd" d="M7.72363 6.27474V4.17334H8.72363V6.27474H7.72363Z" fill="#211300"/>
<path fill-rule="evenodd" clip-rule="evenodd" d="M0 2.9091L1.51313 1.4519L2.2068 2.1722L0.693669 3.6294L0 2.9091Z" fill="#211300"/>
<path fill-rule="evenodd" clip-rule="evenodd" d="M3.44531 5.3601L4.28927 3.35059L5.21126 3.7378L4.3673 5.74732L3.44531 5.3601Z" fill="#211300"/>
<path fill-rule="evenodd" clip-rule="evenodd" d="M15.7543 3.62915L14.2412 2.17195L14.9349 1.45166L16.448 2.90886L15.7543 3.62915Z" fill="#211300"/>
<path fill-rule="evenodd" clip-rule="evenodd" d="M12.0803 5.74717L11.2373 3.73766L12.1595 3.35083L13.0024 5.36035L12.0803 5.74717Z" fill="#211300"/>
</svg>
